<svg xmlns="http://www.w3.org/2000/svg" version="1.1" xmlns:xlink="http://www.w3.org/1999/xlink" xmlns:svgjs="http://svgjs.dev/svgjs" width="1440" height="250" preserveAspectRatio="none" viewBox="0 0 1440 250"><g mask="url(&quot;#SvgjsMask1045&quot;)" fill="none"><path d="M47 250L297 0L366 0L116 250z" fill="url(&quot;#SvgjsLinearGradient1046&quot;)"></path><path d="M249.60000000000002 250L499.6 0L847.6 0L597.6 250z" fill="url(&quot;#SvgjsLinearGradient1046&quot;)"></path><path d="M508.20000000000005 250L758.2 0L983.2 0L733.2 250z" fill="url(&quot;#SvgjsLinearGradient1046&quot;)"></path><path d="M734.8000000000001 250L984.8000000000001 0L1284.8000000000002 0L1034.8000000000002 250z" fill="url(&quot;#SvgjsLinearGradient1046&quot;)"></path><path d="M1422 250L1172 0L950 0L1200 250z" fill="url(&quot;#SvgjsLinearGradient1047&quot;)"></path><path d="M1168.4 250L918.4000000000001 0L712.9000000000001 0L962.9000000000001 250z" fill="url(&quot;#SvgjsLinearGradient1047&quot;)"></path><path d="M962.8 250L712.8 0L367.79999999999995 0L617.8 250z" fill="url(&quot;#SvgjsLinearGradient1047&quot;)"></path><path d="M698.1999999999999 250L448.19999999999993 0L149.69999999999993 0L399.69999999999993 250z" fill="url(&quot;#SvgjsLinearGradient1047&quot;)"></path><path d="M1239.4109566815937 250L1440 49.410956681593774L1440 250z" fill="url(&quot;#SvgjsLinearGradient1046&quot;)"></path><path d="M0 250L200.58904331840623 250L 0 49.410956681593774z" fill="url(&quot;#SvgjsLinearGradient1047&quot;)"></path></g><defs><mask id="SvgjsMask1045"><rect width="1440" height="250" fill="#ffffff"></rect></mask><linearGradient x1="0%" y1="100%" x2="100%" y2="0%" id="SvgjsLinearGradient1046"><stop stop-color="rgba(86, 105, 115, 0.08)" offset="0"></stop><stop stop-opacity="0" stop-color="rgba(86, 105, 115, 0.08)" offset="0.66"></stop></linearGradient><linearGradient x1="100%" y1="100%" x2="0%" y2="0%" id="SvgjsLinearGradient1047"><stop stop-color="rgba(86, 105, 115, 0.08)" offset="0"></stop><stop stop-opacity="0" stop-color="rgba(86, 105, 115, 0.08)" offset="0.66"></stop></linearGradient></defs></svg>