<svg xmlns="http://www.w3.org/2000/svg" version="1.1" xmlns:xlink="http://www.w3.org/1999/xlink" xmlns:svgjs="http://svgjs.dev/svgjs" width="1600" height="800" preserveAspectRatio="none" viewBox="0 0 1600 800"><g mask="url(&quot;#SvgjsMask1016&quot;)" fill="none"><path d="M-85.47 646.81C43.64 647.29 167.87 746.81 421.22 746.81 674.56 746.81 672.69 646.58 927.9 646.81 1183.11 647.04 1296.26 865.15 1434.59 870.02" stroke="rgba(4, 79, 229, 0.58)" stroke-width="2"></path><path d="M-3.93 341.53C180.18 346.45 309.45 601.92 680.74 613.53 1052.02 625.14 1178.16 911.53 1365.4 918.31" stroke="rgba(4, 79, 229, 0.58)" stroke-width="2"></path><path d="M-195.65 361.42C-85.08 358.65-16.79 187.76 216.83 201.42 450.45 215.08 462.82 728.98 629.31 803.75" stroke="rgba(4, 79, 229, 0.58)" stroke-width="2"></path><path d="M-203.45 754.18C-6.61 753.06 272.63 577.62 564 578.18 855.37 578.74 819.17 909.97 947.72 936.28" stroke="rgba(4, 79, 229, 0.58)" stroke-width="2"></path><path d="M-241.64 558.37C-74.49 555.75 142.37 346.07 393.85 350.37 645.34 354.67 576.1 806.03 711.6 880.14" stroke="rgba(4, 79, 229, 0.58)" stroke-width="2"></path></g><defs><mask id="SvgjsMask1016"><rect width="1600" height="800" fill="#ffffff"></rect></mask></defs></svg>