<svg xmlns="http://www.w3.org/2000/svg" version="1.1" xmlns:xlink="http://www.w3.org/1999/xlink" xmlns:svgjs="http://svgjs.dev/svgjs" width="1440" height="560" preserveAspectRatio="none" viewBox="0 0 1440 560"><g mask="url(&quot;#SvgjsMask1472&quot;)" fill="none"><rect width="1440" height="560" x="0" y="0" fill="url(&quot;#SvgjsLinearGradient1473&quot;)"></rect><path d="M1440 0L1276.54 0L1440 181.78z" fill="rgba(255, 255, 255, .1)"></path><path d="M1276.54 0L1440 181.78L1440 289.55L617.3499999999999 0z" fill="rgba(255, 255, 255, .075)"></path><path d="M617.3499999999999 0L1440 289.55L1440 426.05L435.5299999999999 0z" fill="rgba(255, 255, 255, .05)"></path><path d="M435.53 0L1440 426.05L1440 511.15L221.28999999999996 0z" fill="rgba(255, 255, 255, .025)"></path><path d="M0 560L515.04 560L0 333.02z" fill="rgba(0, 0, 0, .1)"></path><path d="M0 333.02L515.04 560L908.93 560L0 305.64z" fill="rgba(0, 0, 0, .075)"></path><path d="M0 305.64L908.93 560L1138.34 560L0 123.51999999999998z" fill="rgba(0, 0, 0, .05)"></path><path d="M0 123.51999999999998L1138.34 560L1351.62 560L0 59.00999999999998z" fill="rgba(0, 0, 0, .025)"></path></g><defs><mask id="SvgjsMask1472"><rect width="1440" height="560" fill="#ffffff"></rect></mask><linearGradient x1="15.28%" y1="-39.29%" x2="84.72%" y2="139.29%" gradientUnits="userSpaceOnUse" id="SvgjsLinearGradient1473"><stop stop-color="rgba(14, 42, 71, 1)" offset="0"></stop><stop stop-color="rgba(0, 69, 158, 1)" offset="0.8"></stop><stop stop-color="rgba(0, 69, 158, 1)" offset="1"></stop></linearGradient></defs></svg>